<?xml version="1.0" encoding="utf-8"?>
<!-- Generator: Adobe Illustrator 16.0.0, SVG Export Plug-In . SVG Version: 6.00 Build 0)  -->
<!DOCTYPE svg PUBLIC "-//W3C//DTD SVG 1.1//EN" "http://www.w3.org/Graphics/SVG/1.1/DTD/svg11.dtd">
<svg version="1.1" id="Layer_1" xmlns="http://www.w3.org/2000/svg" xmlns:xlink="http://www.w3.org/1999/xlink" x="0px" y="0px"
	 width="1400px" height="980px" viewBox="0 0 1400 980" enable-background="new 0 0 1400 980" xml:space="preserve">
<g>
	<g>
		<g>
			<rect fill="#FFFFFF" width="1400" height="980"/>
		</g>
	</g>
	<g>
		<rect x="94.2" y="201.4" fill="#FF8273" width="269.3" height="592.8"/>
		<path fill="#231F20" d="M363.5,796.4H94.2c-1.2,0-2.1-1-2.1-2.1V201.4c0-1.2,1-2.1,2.1-2.1h269.3c1.2,0,2.1,1,2.1,2.1v592.8
			C365.6,795.4,364.6,796.4,363.5,796.4z M96.3,792.1h265V203.5h-265V792.1z"/>
	</g>
	<g>
		<rect x="146.1" y="308.6" fill="#EB776A" width="195.9" height="349.5"/>
	</g>
	<g>
		<polygon fill="#D1D3D4" points="520.8,302.8 515.7,284.9 762.2,183.1 765.2,258.7 		"/>
		<path fill="#231F20" d="M520.8,304.9c-0.9,0-1.8-0.6-2.1-1.6l-5-17.9c-0.3-1,0.2-2.2,1.3-2.6l246.4-101.8c0.6-0.3,1.4-0.2,2,0.2
			c0.6,0.4,1,1,1,1.7l3,75.6c0,1.1-0.7,2-1.8,2.2l-244.4,44.1C521,304.9,520.9,304.9,520.8,304.9z M518.3,286.1l4,14.2l240.6-43.4
			l-2.8-70.7L518.3,286.1z"/>
	</g>
	<g>
		<rect x="506.6" y="317.9" fill="#D1D3D4" width="18.3" height="73.4"/>
		<path fill="#231F20" d="M524.9,393.4h-18.3c-1.2,0-2.1-1-2.1-2.1v-73.4c0-1.2,1-2.1,2.1-2.1h18.3c1.2,0,2.1,1,2.1,2.1v73.4
			C527,392.4,526.1,393.4,524.9,393.4z M508.7,389.1h14V320h-14V389.1z"/>
	</g>
	<g>
		<rect x="765.2" y="267" fill="#D1D3D4" width="74.8" height="83.3"/>
		<path fill="#231F20" d="M839.9,352.4h-74.8c-1.2,0-2.1-1-2.1-2.1V267c0-1.2,1-2.1,2.1-2.1h74.8c1.2,0,2.1,1,2.1,2.1v83.3
			C842.1,351.5,841.1,352.4,839.9,352.4z M767.3,348.1h70.5v-79h-70.5V348.1z"/>
	</g>
	<g>
		<path fill="#FFF29B" d="M516.4,471.9c-28.6,0-51.9,23.2-51.9,51.9c0,7.7,1.7,15,4.7,21.5l26.8,55.6v0.2h0.1h40.5l26.3-54.7
			c3.3-6.8,5.2-14.5,5.2-22.7C568.2,495.1,545,471.9,516.4,471.9z"/>
		<path fill="#231F20" d="M536.7,603.2h-40.5c-1.1,0-2-0.8-2.2-1.8l-26.6-55.2c-3.3-7.1-4.9-14.7-4.9-22.5c0-29.8,24.2-54,54-54
			c29.8,0,54,24.2,54,54c0,8.3-1.8,16.2-5.4,23.6L538.6,602C538.3,602.8,537.5,603.2,536.7,603.2z M497.5,598.9h37.8l25.7-53.4
			c3.3-6.8,5-14.1,5-21.7c0-27.4-22.3-49.7-49.7-49.7c-27.4,0-49.7,22.3-49.7,49.7c0,7.2,1.5,14.1,4.5,20.7L497.5,598.9z"/>
	</g>
	<g>
		<path fill="#231F20" d="M516.4,638c-15.6,0-28.3-12.7-28.3-28.3v-8.7c0-1.2,1-2.1,2.1-2.1h52.2c1.2,0,2.1,1,2.1,2.1v8.7
			C544.7,625.4,532,638,516.4,638z M492.4,603.2v6.6c0,13.2,10.7,24,24,24c13.2,0,24-10.7,24-24v-6.6H492.4z"/>
	</g>
	<g>
		<path fill="#231F20" d="M549.2,620.6h-67c-1.2,0-2.1-1-2.1-2.1c0-1.2,1-2.1,2.1-2.1h67c1.2,0,2.1,1,2.1,2.1
			C551.4,619.7,550.4,620.6,549.2,620.6z"/>
	</g>
	<g>
		<rect x="644.5" y="389" fill="#00AD79" width="85.3" height="353.7"/>
		<path fill="#231F20" d="M729.8,744.8h-85.3c-1.2,0-2.1-1-2.1-2.1V389c0-1.2,1-2.1,2.1-2.1h85.3c1.2,0,2.1,1,2.1,2.1v353.7
			C731.9,743.8,730.9,744.8,729.8,744.8z M646.6,740.5h81V391.1h-81V740.5z"/>
	</g>
	<g>
		<rect x="729.8" y="389" fill="#00C489" width="230.3" height="353.7"/>
		<path fill="#231F20" d="M960.1,744.8H729.8c-1.2,0-2.1-1-2.1-2.1V389c0-1.2,1-2.1,2.1-2.1h230.3c1.2,0,2.1,1,2.1,2.1v353.7
			C962.2,743.8,961.3,744.8,960.1,744.8z M731.9,740.5h226V391.1h-226V740.5z"/>
	</g>
	<g>
		<path fill="#D1D3D4" d="M644.5,658.1H445.3c-15.4,0-27.9,12.5-27.9,27.9c0,15.4,12.5,27.9,27.9,27.9h199.1V658.1z"/>
		<path fill="#231F20" d="M644.5,716.1H445.3c-16.6,0-30.1-13.5-30.1-30.1c0-16.6,13.5-30.1,30.1-30.1h199.1c1.2,0,2.1,1,2.1,2.1
			v55.8C646.6,715.1,645.6,716.1,644.5,716.1z M445.3,660.2c-14.2,0-25.8,11.6-25.8,25.8s11.6,25.8,25.8,25.8h197v-51.5H445.3z"/>
	</g>
	<g>
		<path fill="#FF998D" d="M458.1,686c0,6.8-5.5,12.4-12.4,12.4s-12.4-5.5-12.4-12.4c0-6.8,5.5-12.4,12.4-12.4S458.1,679.2,458.1,686
			z"/>
		<path fill="#231F20" d="M445.7,700.5c-8,0-14.5-6.5-14.5-14.5c0-8,6.5-14.5,14.5-14.5c8,0,14.5,6.5,14.5,14.5
			C460.2,694,453.7,700.5,445.7,700.5z M445.7,675.8c-5.6,0-10.2,4.6-10.2,10.2s4.6,10.2,10.2,10.2c5.6,0,10.2-4.6,10.2-10.2
			S451.3,675.8,445.7,675.8z"/>
	</g>
	<g>
		<circle fill="#FF998D" cx="500.3" cy="686" r="12.4"/>
		<path fill="#231F20" d="M500.3,700.5c-8,0-14.5-6.5-14.5-14.5c0-8,6.5-14.5,14.5-14.5s14.5,6.5,14.5,14.5
			C514.8,694,508.3,700.5,500.3,700.5z M500.3,675.8c-5.6,0-10.2,4.6-10.2,10.2s4.6,10.2,10.2,10.2s10.2-4.6,10.2-10.2
			S505.9,675.8,500.3,675.8z"/>
	</g>
	<g>
		<circle fill="#FF998D" cx="554.8" cy="686" r="12.4"/>
		<path fill="#231F20" d="M554.8,700.5c-8,0-14.5-6.5-14.5-14.5c0-8,6.5-14.5,14.5-14.5c8,0,14.5,6.5,14.5,14.5
			C569.3,694,562.8,700.5,554.8,700.5z M554.8,675.8c-5.6,0-10.2,4.6-10.2,10.2s4.6,10.2,10.2,10.2c5.6,0,10.2-4.6,10.2-10.2
			S560.4,675.8,554.8,675.8z"/>
	</g>
	<g>
		<path fill="#FF998D" d="M621.7,686c0,6.8-5.5,12.4-12.4,12.4c-6.8,0-12.4-5.5-12.4-12.4c0-6.8,5.5-12.4,12.4-12.4
			C616.2,673.7,621.7,679.2,621.7,686z"/>
		<path fill="#231F20" d="M609.3,700.5c-8,0-14.5-6.5-14.5-14.5c0-8,6.5-14.5,14.5-14.5c8,0,14.5,6.5,14.5,14.5
			C623.8,694,617.3,700.5,609.3,700.5z M609.3,675.8c-5.6,0-10.2,4.6-10.2,10.2s4.6,10.2,10.2,10.2c5.6,0,10.2-4.6,10.2-10.2
			S615,675.8,609.3,675.8z"/>
	</g>
	<g>
		<rect x="670" y="742.7" fill="#939598" width="265" height="38.7"/>
		<path fill="#231F20" d="M935,783.5H670c-1.2,0-2.1-1-2.1-2.1v-38.7c0-1.2,1-2.1,2.1-2.1h265c1.2,0,2.1,1,2.1,2.1v38.7
			C937.2,782.5,936.2,783.5,935,783.5z M672.2,779.2h260.7v-34.4H672.2V779.2z"/>
	</g>
	<g>
		<rect x="670" y="350.3" fill="#939598" width="265" height="38.7"/>
		<path fill="#231F20" d="M935,391.1H670c-1.2,0-2.1-1-2.1-2.1v-38.7c0-1.2,1-2.1,2.1-2.1h265c1.2,0,2.1,1,2.1,2.1V389
			C937.2,390.1,936.2,391.1,935,391.1z M672.2,386.8h260.7v-34.4H672.2V386.8z"/>
	</g>
	<g>
		<path fill="#939598" d="M873.1,216.6c0,38.9-31.6,70.5-70.5,70.5c-38.9,0-70.5-31.6-70.5-70.5c0-38.9,31.6-70.5,70.5-70.5
			C841.5,146.1,873.1,177.7,873.1,216.6z"/>
		<path fill="#231F20" d="M802.5,289.3c-40.1,0-72.7-32.6-72.7-72.7c0-40.1,32.6-72.7,72.7-72.7c40.1,0,72.7,32.6,72.7,72.7
			C875.2,256.7,842.6,289.3,802.5,289.3z M802.5,148.3c-37.7,0-68.4,30.7-68.4,68.4c0,37.7,30.7,68.4,68.4,68.4
			c37.7,0,68.4-30.7,68.4-68.4C870.9,179,840.2,148.3,802.5,148.3z"/>
	</g>
	<g>
		<path fill="#FF8273" d="M830.7,216.6c0,15.5-12.6,28.2-28.1,28.2c-15.6,0-28.1-12.6-28.1-28.2c0-15.5,12.6-28.1,28.1-28.1
			C818.1,188.5,830.7,201.1,830.7,216.6z"/>
		<path fill="#231F20" d="M802.5,246.9c-16.7,0-30.3-13.6-30.3-30.3c0-16.7,13.6-30.3,30.3-30.3s30.3,13.6,30.3,30.3
			C832.8,233.4,819.3,246.9,802.5,246.9z M802.5,190.6c-14.3,0-26,11.7-26,26c0,14.3,11.7,26,26,26s26-11.7,26-26
			C828.5,202.3,816.9,190.6,802.5,190.6z"/>
	</g>
	<g>
		<polygon fill="#D1D3D4" points="534.9,386.7 603.7,428.2 593.9,442.4 524.1,414.5 		"/>
		<path fill="#231F20" d="M593.9,444.6c-0.3,0-0.5-0.1-0.8-0.2l-69.8-27.9c-1.1-0.4-1.6-1.7-1.2-2.8l10.8-27.9
			c0.2-0.6,0.7-1.1,1.3-1.3c0.6-0.2,1.3-0.1,1.8,0.2l68.8,41.5c0.5,0.3,0.9,0.8,1,1.4c0.1,0.6,0,1.2-0.3,1.7l-9.8,14.2
			C595.3,444.2,594.6,444.6,593.9,444.6z M526.9,413.3l66.2,26.4l7.5-10.9l-64.7-39L526.9,413.3z"/>
	</g>
	<g>
		<polygon fill="#D1D3D4" points="606.3,444.4 569,516.2 558.5,491.3 592.6,438 		"/>
		<path fill="#231F20" d="M569,518.4C568.9,518.4,568.9,518.4,569,518.4c-0.9,0-1.7-0.6-2-1.3l-10.4-24.9c-0.3-0.7-0.2-1.4,0.2-2
			l34.1-53.3c0.6-0.9,1.7-1.2,2.7-0.8l13.6,6.4c0.5,0.3,0.9,0.7,1.1,1.3c0.2,0.6,0.1,1.2-0.1,1.7l-37.3,71.8
			C570.5,517.9,569.8,518.4,569,518.4z M560.9,491.5l8.2,19.6l34.2-65.8l-9.9-4.6L560.9,491.5z"/>
	</g>
	<g>
		<circle fill="#939598" cx="598.4" cy="435.9" r="14.6"/>
		<path fill="#231F20" d="M598.4,452.6c-9.2,0-16.8-7.5-16.8-16.8c0-9.2,7.5-16.8,16.8-16.8s16.8,7.5,16.8,16.8
			C615.2,445.1,607.7,452.6,598.4,452.6z M598.4,423.4c-6.9,0-12.5,5.6-12.5,12.5s5.6,12.5,12.5,12.5s12.5-5.6,12.5-12.5
			S605.3,423.4,598.4,423.4z"/>
	</g>
	<g>
		<polygon fill="#D1D3D4" points="496.6,386.7 427.8,428.2 437.6,442.4 507.4,414.5 		"/>
		<path fill="#231F20" d="M437.6,444.6c-0.7,0-1.4-0.3-1.8-0.9l-9.8-14.2c-0.3-0.5-0.5-1.1-0.3-1.7c0.1-0.6,0.5-1.1,1-1.4l68.8-41.5
			c0.5-0.3,1.2-0.4,1.8-0.2c0.6,0.2,1.1,0.7,1.3,1.3l10.8,27.9c0.4,1.1-0.1,2.3-1.2,2.8l-69.8,27.9
			C438.1,444.5,437.9,444.6,437.6,444.6z M430.9,428.8l7.5,10.9l66.2-26.4l-9.1-23.5L430.9,428.8z"/>
	</g>
	<g>
		<polygon fill="#D1D3D4" points="425.2,444.4 462.6,516.2 473,491.3 438.9,438 		"/>
		<path fill="#231F20" d="M462.6,518.4c-0.8,0-1.5-0.4-1.9-1.2l-37.3-71.8c-0.3-0.5-0.3-1.1-0.1-1.7c0.2-0.6,0.6-1,1.1-1.3l13.6-6.4
			c1-0.4,2.1-0.1,2.7,0.8l34.1,53.3c0.4,0.6,0.4,1.3,0.2,2l-10.4,24.9C464.2,517.8,463.5,518.3,462.6,518.4
			C462.6,518.4,462.6,518.4,462.6,518.4z M428.2,445.4l34.2,65.8l8.2-19.6l-32.5-50.8L428.2,445.4z"/>
	</g>
	<g>
		<path fill="#939598" d="M543,397.5c0,15.1-12.2,27.3-27.3,27.3c-15.1,0-27.3-12.2-27.3-27.3c0-15.1,12.2-27.3,27.3-27.3
			C530.8,370.2,543,382.4,543,397.5z"/>
		<path fill="#231F20" d="M515.7,426.9c-16.2,0-29.4-13.2-29.4-29.4c0-16.2,13.2-29.4,29.4-29.4c16.2,0,29.4,13.2,29.4,29.4
			C545.2,413.7,532,426.9,515.7,426.9z M515.7,372.3c-13.9,0-25.2,11.3-25.2,25.1c0,13.9,11.3,25.2,25.2,25.2
			c13.9,0,25.1-11.3,25.1-25.2C540.9,383.6,529.6,372.3,515.7,372.3z"/>
	</g>
	<g>
		<path fill="#939598" d="M447.7,435.9c0,8.1-6.5,14.6-14.6,14.6c-8.1,0-14.6-6.5-14.6-14.6c0-8.1,6.5-14.6,14.6-14.6
			C441.2,421.2,447.7,427.8,447.7,435.9z"/>
		<path fill="#231F20" d="M433.1,452.6c-9.2,0-16.8-7.5-16.8-16.8c0-9.2,7.5-16.8,16.8-16.8c9.2,0,16.8,7.5,16.8,16.8
			C449.9,445.1,442.3,452.6,433.1,452.6z M433.1,423.4c-6.9,0-12.5,5.6-12.5,12.5s5.6,12.5,12.5,12.5c6.9,0,12.5-5.6,12.5-12.5
			S440,423.4,433.1,423.4z"/>
	</g>
	<g>
		<path fill="#939598" d="M537.2,300.8c0,11.9-9.6,21.5-21.5,21.5c-11.9,0-21.5-9.6-21.5-21.5c0-11.9,9.6-21.5,21.5-21.5
			C527.6,279.3,537.2,289,537.2,300.8z"/>
		<path fill="#231F20" d="M515.7,324.4c-13,0-23.6-10.6-23.6-23.6c0-13,10.6-23.6,23.6-23.6s23.6,10.6,23.6,23.6
			C539.3,313.8,528.7,324.4,515.7,324.4z M515.7,281.5c-10.7,0-19.3,8.7-19.3,19.3s8.7,19.3,19.3,19.3s19.3-8.7,19.3-19.3
			S526.4,281.5,515.7,281.5z"/>
	</g>
	<g>
		<rect x="774.4" y="443.6" fill="#FFF29B" width="143.6" height="67.1"/>
		<path fill="#231F20" d="M918,512.8H774.4c-1.2,0-2.1-1-2.1-2.1v-67.1c0-1.2,1-2.1,2.1-2.1H918c1.2,0,2.1,1,2.1,2.1v67.1
			C920.1,511.9,919.2,512.8,918,512.8z M776.5,508.5h139.3v-62.8H776.5V508.5z"/>
	</g>
	<g>
		<path fill="#FF998D" d="M788.2,582.3c0,7.6-6.2,13.8-13.8,13.8c-7.6,0-13.8-6.2-13.8-13.8s6.2-13.8,13.8-13.8
			C782,568.5,788.2,574.7,788.2,582.3z"/>
		<path fill="#231F20" d="M774.4,598.2c-8.8,0-15.9-7.2-15.9-15.9s7.2-15.9,15.9-15.9s15.9,7.1,15.9,15.9S783.2,598.2,774.4,598.2z
			 M774.4,570.7c-6.4,0-11.6,5.2-11.6,11.6s5.2,11.6,11.6,11.6s11.6-5.2,11.6-11.6S780.8,570.7,774.4,570.7z"/>
	</g>
	<g>
		<path fill="#FF998D" d="M860,582.3c0,7.6-6.2,13.8-13.8,13.8s-13.8-6.2-13.8-13.8s6.2-13.8,13.8-13.8S860,574.7,860,582.3z"/>
		<path fill="#231F20" d="M846.2,598.2c-8.8,0-15.9-7.2-15.9-15.9s7.1-15.9,15.9-15.9c8.8,0,15.9,7.1,15.9,15.9
			S855,598.2,846.2,598.2z M846.2,570.7c-6.4,0-11.6,5.2-11.6,11.6s5.2,11.6,11.6,11.6c6.4,0,11.6-5.2,11.6-11.6
			S852.6,570.7,846.2,570.7z"/>
	</g>
	<g>
		<path fill="#FF998D" d="M931.8,582.3c0,7.6-6.2,13.8-13.8,13.8s-13.8-6.2-13.8-13.8s6.2-13.8,13.8-13.8S931.8,574.7,931.8,582.3z"
			/>
		<path fill="#231F20" d="M918,598.2c-8.8,0-15.9-7.2-15.9-15.9s7.1-15.9,15.9-15.9c8.8,0,15.9,7.1,15.9,15.9S926.8,598.2,918,598.2
			z M918,570.7c-6.4,0-11.6,5.2-11.6,11.6s5.2,11.6,11.6,11.6s11.6-5.2,11.6-11.6S924.4,570.7,918,570.7z"/>
	</g>
	<g>
		<path fill="#231F20" d="M918,638H774.4c-1.2,0-2.1-1-2.1-2.1s1-2.1,2.1-2.1H918c1.2,0,2.1,1,2.1,2.1S919.2,638,918,638z"/>
	</g>
	<g>
		<path fill="#231F20" d="M887.3,679.3H774.4c-1.2,0-2.1-1-2.1-2.1c0-1.2,1-2.1,2.1-2.1h112.9c1.2,0,2.1,1,2.1,2.1
			C889.4,678.3,888.5,679.3,887.3,679.3z"/>
	</g>
	<g>
		<path fill="#231F20" d="M699.9,744.8c-1.2,0-2.1-1-2.1-2.1V536.5c0-1.2,1-2.1,2.1-2.1c1.2,0,2.1,1,2.1,2.1v206.2
			C702.1,743.8,701.1,744.8,699.9,744.8z"/>
	</g>
	<g>
		<path fill="#231F20" d="M670,744.8c-1.2,0-2.1-1-2.1-2.1v-137c0-1.2,1-2.1,2.1-2.1s2.1,1,2.1,2.1v137
			C672.2,743.8,671.2,744.8,670,744.8z"/>
	</g>
	<g>
		<path fill="#231F20" d="M516.4,603.2c-1.2,0-2.1-1-2.1-2.1v-67.5c0-1.2,1-2.1,2.1-2.1c1.2,0,2.1,1,2.1,2.1v67.5
			C518.6,602.3,517.6,603.2,516.4,603.2z"/>
	</g>
	<g>
		<path fill="#231F20" d="M535.7,549.8h-38.6c-1.2,0-2.1-1-2.1-2.1s1-2.1,2.1-2.1h38.6c1.2,0,2.1,1,2.1,2.1S536.9,549.8,535.7,549.8
			z"/>
	</g>
	<g>
		<rect x="1035.2" y="272" fill="#C489FF" width="272.1" height="249.3"/>
		<path d="M1307.3,523.4h-272.1c-1.2,0-2.1-1-2.1-2.1V272c0-1.2,1-2.1,2.1-2.1h272.1c1.2,0,2.1,1,2.1,2.1v249.3
			C1309.4,522.4,1308.5,523.4,1307.3,523.4z M1037.3,519.1h267.8v-245h-267.8V519.1z"/>
	</g>
	<g>
		<rect x="1062.4" y="243.8" fill="#939598" width="219.1" height="28.1"/>
		<path fill="#231F20" d="M1281.5,274.1h-219.1c-1.2,0-2.1-1-2.1-2.1v-28.1c0-1.2,1-2.1,2.1-2.1h219.1c1.2,0,2.1,1,2.1,2.1V272
			C1283.7,273.2,1282.7,274.1,1281.5,274.1z M1064.5,269.8h214.8V246h-214.8V269.8z"/>
	</g>
	<g>
		<rect x="1062.4" y="521.2" fill="#939598" width="219.1" height="28.1"/>
		<path fill="#231F20" d="M1281.5,551.5h-219.1c-1.2,0-2.1-1-2.1-2.1v-28.1c0-1.2,1-2.1,2.1-2.1h219.1c1.2,0,2.1,1,2.1,2.1v28.1
			C1283.7,550.6,1282.7,551.5,1281.5,551.5z M1064.5,547.2h214.8v-23.9h-214.8V547.2z"/>
	</g>
	<g>
		<path fill="#CCED6B" d="M1160.1,194.9v48.9h23.6v-48.9c-3.9,0.6-7.8,1-11.8,1C1167.9,196,1164,195.6,1160.1,194.9z"/>
		<path d="M1183.8,246h-23.6c-1.2,0-2.1-1-2.1-2.1v-48.9c0-0.6,0.3-1.2,0.8-1.6c0.5-0.4,1.1-0.6,1.7-0.5c8.3,1.4,14.6,1.4,22.9,0
			c0.6-0.1,1.3,0.1,1.7,0.5c0.5,0.4,0.8,1,0.8,1.6v48.9C1185.9,245,1184.9,246,1183.8,246z M1162.3,241.7h19.3v-44.2
			c-6.8,0.9-12.5,0.9-19.3,0V241.7z"/>
	</g>
	<g>
		<path d="M988.6,294.4c-1.2,0-2.1-1-2.1-2.1v-51.1c0-1.2,1-2.1,2.1-2.1h22.2v-37.6c0-1.2,1-2.1,2.1-2.1h63c1.2,0,2.1,1,2.1,2.1
			s-1,2.1-2.1,2.1h-60.9v37.6c0,1.2-1,2.1-2.1,2.1h-22.2v48.9C990.8,293.4,989.8,294.4,988.6,294.4z"/>
	</g>
	<g>
		<path d="M1307.3,597.3H1244c-1.2,0-2.1-1-2.1-2.1c0-1.2,1-2.1,2.1-2.1h61.1v-28.2c0-1.2,1-2.1,2.1-2.1s2.1,1,2.1,2.1v30.3
			C1309.4,596.4,1308.5,597.3,1307.3,597.3z"/>
	</g>
	<g>
		<path d="M1171.9,77.9c-1.2,0-2.1-1-2.1-2.1V62.9c0-1.2,1-2.1,2.1-2.1c1.2,0,2.1,1,2.1,2.1v12.9
			C1174.1,76.9,1173.1,77.9,1171.9,77.9z"/>
	</g>
	<g>
		<path d="M1143.6,87.1c-0.7,0-1.3-0.3-1.7-0.9l-7.6-10.4c-0.7-1-0.5-2.3,0.5-3c1-0.7,2.3-0.5,3,0.5l7.6,10.4c0.7,1,0.5,2.3-0.5,3
			C1144.5,87,1144,87.1,1143.6,87.1z"/>
	</g>
	<g>
		<path d="M1126.1,111.2c-0.2,0-0.4,0-0.7-0.1l-12.3-4c-1.1-0.4-1.7-1.6-1.4-2.7c0.4-1.1,1.6-1.7,2.7-1.4l12.3,4
			c1.1,0.4,1.7,1.6,1.4,2.7C1127.9,110.6,1127,111.2,1126.1,111.2z"/>
	</g>
	<g>
		<path d="M1113.9,145c-0.9,0-1.8-0.6-2-1.5c-0.4-1.1,0.3-2.3,1.4-2.7l12.3-4c1.1-0.4,2.3,0.3,2.7,1.4c0.4,1.1-0.3,2.3-1.4,2.7
			l-12.3,4C1114.3,144.9,1114.1,145,1113.9,145z"/>
	</g>
	<g>
		<path d="M1136,175.5c-0.4,0-0.9-0.1-1.3-0.4c-1-0.7-1.2-2-0.5-3l7.6-10.4c0.7-1,2-1.2,3-0.5c1,0.7,1.2,2,0.5,3l-7.6,10.4
			C1137.4,175.2,1136.7,175.5,1136,175.5z"/>
	</g>
	<g>
		<path d="M1171.9,187.2L1171.9,187.2c-1.2,0-2.1-1-2.1-2.1l0-12.9c0-1.2,1-2.1,2.1-2.1l0,0c1.2,0,2.1,1,2.1,2.1l0,12.9
			C1174.1,186.2,1173.1,187.2,1171.9,187.2z"/>
	</g>
	<g>
		<path d="M1207.8,175.5c-0.7,0-1.3-0.3-1.7-0.9l-7.6-10.4c-0.7-1-0.5-2.3,0.5-3c1-0.7,2.3-0.5,3,0.5l7.6,10.4c0.7,1,0.5,2.3-0.5,3
			C1208.7,175.4,1208.3,175.5,1207.8,175.5z"/>
	</g>
	<g>
		<path d="M1230,145c-0.2,0-0.4,0-0.7-0.1l-12.3-4c-1.1-0.4-1.7-1.6-1.4-2.7c0.4-1.1,1.6-1.7,2.7-1.4l12.3,4
			c1.1,0.4,1.7,1.6,1.4,2.7C1231.8,144.4,1230.9,145,1230,145z"/>
	</g>
	<g>
		<path d="M1217.8,111.2c-0.9,0-1.7-0.6-2-1.5c-0.4-1.1,0.3-2.3,1.4-2.7l12.3-4c1.1-0.4,2.3,0.3,2.7,1.4c0.4,1.1-0.3,2.3-1.4,2.7
			l-12.3,4C1218.2,111.2,1218,111.2,1217.8,111.2z"/>
	</g>
	<g>
		<path d="M1172,198.1C1172,198.1,1172,198.1,1172,198.1c-11.5,0-22.9-2.7-33.2-7.8c-3.9-2-7.4-4-10.5-6.3c-3-2.2-6-4.8-9.2-8
			c-25.6-25.9-28.6-66.1-7.2-95.6c13.9-19.2,36.4-30.6,60.1-30.6c15.7,0,30.8,4.9,43.5,14.2c33.1,24,40.5,70.5,16.4,103.6
			C1218.1,186.7,1195.6,198.1,1172,198.1z M1172,54c-22.3,0-43.5,10.8-56.6,28.8c-20.2,27.8-17.3,65.6,6.8,90.1
			c3.1,3.1,5.8,5.5,8.7,7.6c2.9,2.1,6.2,4.1,9.9,5.9c9.6,4.8,20.4,7.4,31.2,7.4c22.3,0,43.4-10.7,56.5-28.8
			c22.6-31.2,15.7-75-15.5-97.6C1201,58.7,1186.8,54,1172,54z"/>
	</g>
	<g>
		<path d="M1200.3,87.1c-0.4,0-0.9-0.1-1.3-0.4c-1-0.7-1.2-2-0.5-3l7.6-10.4c0.7-1,2-1.2,3-0.5c1,0.7,1.2,2,0.5,3l-7.6,10.4
			C1201.6,86.8,1200.9,87.1,1200.3,87.1z"/>
	</g>
	<g>
		<circle fill="#FF8273" cx="1172" cy="123.9" r="10.2"/>
		<path fill="#231F20" d="M1172,136.3c-6.8,0-12.3-5.5-12.3-12.3s5.5-12.3,12.3-12.3c6.8,0,12.3,5.5,12.3,12.3
			S1178.8,136.3,1172,136.3z M1172,115.9c-4.4,0-8.1,3.6-8.1,8.1s3.6,8.1,8.1,8.1c4.4,0,8.1-3.6,8.1-8.1S1176.4,115.9,1172,115.9z"
			/>
	</g>
	<g>
		<path d="M1209.5,154c-0.4,0-0.9-0.1-1.2-0.4l-29.9-21.3c-1-0.7-1.2-2-0.5-3c0.7-1,2-1.2,3-0.5l29.9,21.3c1,0.7,1.2,2,0.5,3
			C1210.9,153.7,1210.2,154,1209.5,154z"/>
	</g>
	<g>
		<circle fill="#FFF29B" cx="1076" cy="346.8" r="16.4"/>
		<path fill="#231F20" d="M1076,365.3c-10.2,0-18.5-8.3-18.5-18.5s8.3-18.5,18.5-18.5s18.5,8.3,18.5,18.5S1086.2,365.3,1076,365.3z
			 M1076,332.6c-7.8,0-14.2,6.4-14.2,14.2s6.4,14.2,14.2,14.2c7.8,0,14.2-6.4,14.2-14.2S1083.8,332.6,1076,332.6z"/>
	</g>
	<g>
		<circle fill="#FFF29B" cx="1172" cy="346.8" r="16.4"/>
		<path fill="#231F20" d="M1172,365.3c-10.2,0-18.5-8.3-18.5-18.5s8.3-18.5,18.5-18.5c10.2,0,18.5,8.3,18.5,18.5
			S1182.2,365.3,1172,365.3z M1172,332.6c-7.8,0-14.2,6.4-14.2,14.2s6.4,14.2,14.2,14.2c7.8,0,14.2-6.4,14.2-14.2
			S1179.8,332.6,1172,332.6z"/>
	</g>
	<g>
		<path fill="#FFF29B" d="M1284.3,346.8c0,9-7.3,16.4-16.4,16.4s-16.4-7.3-16.4-16.4s7.3-16.4,16.4-16.4S1284.3,337.7,1284.3,346.8z
			"/>
		<path fill="#231F20" d="M1267.9,365.3c-10.2,0-18.5-8.3-18.5-18.5s8.3-18.5,18.5-18.5s18.5,8.3,18.5,18.5
			S1278.1,365.3,1267.9,365.3z M1267.9,332.6c-7.8,0-14.2,6.4-14.2,14.2s6.4,14.2,14.2,14.2c7.8,0,14.2-6.4,14.2-14.2
			S1275.8,332.6,1267.9,332.6z"/>
	</g>
	<g>
		<rect x="1076" y="404.1" fill="#FF8273" width="96" height="33.6"/>
		<path fill="#231F20" d="M1172,439.8h-96c-1.2,0-2.1-1-2.1-2.1v-33.6c0-1.2,1-2.1,2.1-2.1h96c1.2,0,2.1,1,2.1,2.1v33.6
			C1174.1,438.9,1173.1,439.8,1172,439.8z M1078.1,435.5h91.7v-29.3h-91.7V435.5z"/>
	</g>
	<g>
		<path d="M1275.6,481.1H1076c-1.2,0-2.1-1-2.1-2.1s1-2.1,2.1-2.1h199.7c1.2,0,2.1,1,2.1,2.1S1276.8,481.1,1275.6,481.1z"/>
	</g>
	<g>
		<path d="M1275.6,423h-75.4c-1.2,0-2.1-1-2.1-2.1c0-1.2,1-2.1,2.1-2.1h75.4c1.2,0,2.1,1,2.1,2.1
			C1277.8,422.1,1276.8,423,1275.6,423z"/>
	</g>
	<g>
		<rect x="180.5" y="168.3" fill="#D1D3D4" width="96.7" height="33.1"/>
		<path fill="#231F20" d="M277.2,203.5h-96.7c-1.2,0-2.1-1-2.1-2.1v-33.1c0-1.2,1-2.1,2.1-2.1h96.7c1.2,0,2.1,1,2.1,2.1v33.1
			C279.3,202.6,278.3,203.5,277.2,203.5z M182.6,199.2H275v-28.8h-92.4V199.2z"/>
	</g>
	<g>
		<g>
			<polygon fill="#CCED6B" points="596.2,210 440.8,210 440.8,120.1 243.9,120.1 243.9,168.1 213.8,168.1 213.8,90 470.9,90 
				470.9,179.9 566.1,179.9 566.1,2.1 596.2,2.1 			"/>
			<path d="M596.2,212.1H440.8c-1.2,0-2.1-1-2.1-2.1v-87.7H246v45.9c0,1.2-1,2.1-2.1,2.1h-30.1c-1.2,0-2.1-1-2.1-2.1V90
				c0-1.2,1-2.1,2.1-2.1h257.1c1.2,0,2.1,1,2.1,2.1v87.7H564V2.1c0-1.2,1-2.1,2.1-2.1h30.1c1.2,0,2.1,1,2.1,2.1V210
				C598.3,211.2,597.4,212.1,596.2,212.1z M443,207.8H594V4.3h-25.8v175.6c0,1.2-1,2.1-2.1,2.1h-95.2c-1.2,0-2.1-1-2.1-2.1V92.2
				H215.9V166h25.8v-45.9c0-1.2,1-2.1,2.1-2.1h197c1.2,0,2.1,1,2.1,2.1V207.8z"/>
		</g>
	</g>
	<g>
		<g>
			<polygon fill="#D1D3D4" points="1028,100 773.2,100 773.2,2.1 803.2,2.1 803.2,69.9 997.9,69.9 997.9,2.1 1028,2.1 			"/>
			<path fill="#231F20" d="M1028,102.1H773.2c-1.2,0-2.1-1-2.1-2.1V2.1c0-1.2,1-2.1,2.1-2.1h30.1c1.2,0,2.1,1,2.1,2.1v65.6h190.4
				V2.1c0-1.2,1-2.1,2.1-2.1h30.1c1.2,0,2.1,1,2.1,2.1V100C1030.1,101.2,1029.2,102.1,1028,102.1z M775.3,97.8h250.5V4.3h-25.8v65.6
				c0,1.2-1,2.1-2.1,2.1H803.2c-1.2,0-2.1-1-2.1-2.1V4.3h-25.8V97.8z"/>
		</g>
	</g>
	<g>
		<g>
			<polygon fill="#D1D3D4" points="1172.6,977.9 1142.5,977.9 1142.5,876.4 313.7,876.4 313.7,977.9 283.6,977.9 283.6,846.3 
				1172.6,846.3 			"/>
			<path fill="#231F20" d="M1172.6,980h-30.1c-1.2,0-2.1-1-2.1-2.1v-99.3H315.8v99.3c0,1.2-1,2.1-2.1,2.1h-30.1
				c-1.2,0-2.1-1-2.1-2.1V846.3c0-1.2,1-2.1,2.1-2.1h889c1.2,0,2.1,1,2.1,2.1v131.6C1174.7,979,1173.7,980,1172.6,980z
				 M1144.6,975.7h25.8V848.4H285.8v127.3h25.8v-99.3c0-1.2,1-2.1,2.1-2.1h828.8c1.2,0,2.1,1,2.1,2.1V975.7z"/>
		</g>
	</g>
	<g>
		<g>
			<path fill="#FFFFFF" d="M461.2,831.6c16.4,11,20.8,33.2,9.7,49.6c-11,16.4-33.2,20.7-49.7,9.7c-16.4-11-20.8-33.2-9.7-49.6
				C422.6,825,444.8,820.6,461.2,831.6z"/>
			<path d="M441.2,899.3c-7.5,0-14.8-2.2-21.1-6.5c-8.4-5.7-14.1-14.2-16.1-24.2c-1.9-9.9,0.1-20,5.7-28.4
				c7.1-10.5,18.8-16.8,31.5-16.8c7.5,0,14.8,2.2,21.1,6.5c8.4,5.6,14.1,14.2,16.1,24.2c2,9.9-0.1,20-5.7,28.5
				C465.7,893,453.9,899.3,441.2,899.3z M441.3,827.7c-11.2,0-21.7,5.6-27.9,14.9c-5,7.5-6.8,16.4-5.1,25.2
				c1.7,8.8,6.8,16.4,14.2,21.4c5.6,3.7,12.1,5.7,18.7,5.7c11.2,0,21.7-5.6,27.9-14.9c5-7.5,6.8-16.4,5.1-25.2
				c-1.7-8.8-6.8-16.4-14.2-21.4C454.4,829.7,448,827.7,441.3,827.7z"/>
		</g>
		<g>
			<path fill="#FF998D" d="M446.9,852.9c4.6,3.1,5.9,9.4,2.7,14c-3.1,4.6-9.4,5.9-14,2.7c-4.6-3.1-5.9-9.4-2.8-14
				C436,851.1,442.2,849.8,446.9,852.9z"/>
			<path fill="#231F20" d="M441.2,873.6c-2.4,0-4.8-0.7-6.8-2.1c-5.6-3.8-7.1-11.4-3.3-17c2.3-3.4,6.1-5.4,10.2-5.4
				c2.4,0,4.8,0.7,6.8,2.1c2.7,1.8,4.6,4.6,5.2,7.8c0.6,3.2,0,6.5-1.9,9.2C449.1,871.6,445.3,873.6,441.2,873.6z M441.3,853.4
				c-2.7,0-5.1,1.3-6.6,3.5c-2.4,3.6-1.5,8.6,2.2,11c3.5,2.4,8.7,1.4,11-2.2c1.2-1.8,1.6-3.9,1.2-6c-0.4-2.1-1.6-3.9-3.4-5.1
				C444.4,853.8,442.8,853.4,441.3,853.4z"/>
		</g>
		<g>
			<path d="M432.9,857.8c-0.4,0-0.8-0.1-1.2-0.4l-21.3-14.3c-1-0.7-1.2-2-0.6-3c0.7-1,2-1.2,3-0.6l21.3,14.3c1,0.7,1.2,2,0.6,3
				C434.2,857.5,433.5,857.8,432.9,857.8z"/>
		</g>
		<g>
			<path d="M438.8,899.2c-0.1,0-0.1,0-0.2,0c-1.2-0.1-2.1-1.1-2-2.3l1.8-25.6c0.1-1.2,1.1-2.1,2.3-2c1.2,0.1,2.1,1.1,2,2.3
				l-1.8,25.6C440.9,898.3,439.9,899.2,438.8,899.2z"/>
		</g>
		<g>
			<path d="M450.3,859c-0.8,0-1.6-0.4-1.9-1.2c-0.5-1.1-0.1-2.3,1-2.9l23-11.3c1-0.5,2.4-0.1,2.9,1c0.5,1.1,0.1,2.3-1,2.9l-23,11.3
				C451,859,450.6,859,450.3,859z"/>
		</g>
	</g>
	<g>
		<g>
			<path fill="#FFFFFF" d="M625,826.4c19.3-4.2,38.3,8.1,42.5,27.4c4.2,19.3-8.1,38.3-27.5,42.5c-19.3,4.2-38.3-8.1-42.5-27.4
				C593.3,849.5,605.6,830.5,625,826.4z"/>
			<path d="M632.4,899.3c-17.7,0-33.3-12.6-37-29.9c-4.4-20.4,8.7-40.7,29.1-45.1c2.6-0.6,5.3-0.9,8-0.9c17.7,0,33.3,12.6,37,30
				c4.4,20.4-8.7,40.6-29.1,45C637.8,899,635.1,899.3,632.4,899.3z M632.5,827.7c-2.4,0-4.8,0.3-7.1,0.8
				c-18.1,3.9-29.7,21.8-25.8,39.9c3.3,15.4,17.1,26.6,32.8,26.6c2.4,0,4.8-0.3,7.1-0.8c18.1-3.9,29.7-21.8,25.8-39.9
				C662,838.9,648.2,827.7,632.5,827.7z"/>
		</g>
		<g>
			<path fill="#FF998D" d="M630.3,851.5c5.5-1.2,10.8,2.3,12,7.8c1.2,5.5-2.3,10.8-7.8,12c-5.4,1.2-10.8-2.3-12-7.7
				C621.4,858,624.9,852.6,630.3,851.5z"/>
			<path fill="#231F20" d="M632.5,873.6c-5.7,0-10.8-4.1-12-9.7c-0.7-3.2-0.1-6.5,1.7-9.2c1.8-2.7,4.5-4.6,7.7-5.3
				c6.5-1.4,13.2,3,14.6,9.4c1.4,6.6-2.8,13.1-9.4,14.5C634.2,873.5,633.3,873.6,632.5,873.6z M632.5,853.4c-0.6,0-1.1,0.1-1.7,0.2
				c-2.1,0.4-3.9,1.7-5,3.5c-1.1,1.8-1.5,3.9-1.1,6c0.9,4.2,5.2,7,9.4,6.1c4.3-0.9,7-5.2,6.1-9.4C639.5,856,636.2,853.4,632.5,853.4
				z"/>
		</g>
		<g>
			<line fill="#FFFFFF" x1="622.6" y1="863.5" x2="597.5" y2="868.9"/>
			<path d="M597.5,871c-1,0-1.9-0.7-2.1-1.7c-0.2-1.2,0.5-2.3,1.6-2.6l25.1-5.4c1.2-0.2,2.3,0.5,2.6,1.6c0.2,1.2-0.5,2.3-1.6,2.6
				L598,871C597.8,871,597.6,871,597.5,871z"/>
		</g>
		<g>
			<line fill="#FFFFFF" x1="639.3" y1="868.8" x2="656.5" y2="887.9"/>
			<path d="M656.5,890c-0.6,0-1.2-0.2-1.6-0.7l-17.2-19c-0.8-0.9-0.7-2.2,0.2-3c0.9-0.8,2.2-0.7,3,0.2l17.2,19
				c0.8,0.9,0.7,2.2-0.2,3C657.5,889.8,657,890,656.5,890z"/>
		</g>
		<g>
			<line fill="#FFFFFF" x1="635.6" y1="851.7" x2="643.4" y2="827.3"/>
			<path d="M635.6,853.9c-0.2,0-0.4,0-0.7-0.1c-1.1-0.4-1.8-1.6-1.4-2.7l7.9-24.4c0.4-1.1,1.6-1.7,2.7-1.4c1.1,0.4,1.7,1.6,1.4,2.7
				l-7.9,24.4C637.3,853.3,636.5,853.9,635.6,853.9z"/>
		</g>
	</g>
	<g>
		<g>
			<path fill="#FFFFFF" d="M856.4,846.9c8,18.1-0.2,39.2-18.3,47.2c-18.1,8-39.2-0.2-47.2-18.3c-8-18.1,0.2-39.2,18.3-47.2
				C827.3,820.6,848.5,828.8,856.4,846.9z"/>
			<path d="M823.7,899.3c-15,0-28.7-8.9-34.7-22.6c-4.1-9.3-4.3-19.6-0.7-29c3.7-9.4,10.8-16.9,20.1-21c4.9-2.1,10-3.2,15.3-3.2
				c15,0,28.6,8.9,34.7,22.6c8.4,19.1-0.3,41.6-19.4,50C834.1,898.2,829,899.3,823.7,899.3z M823.7,827.7c-4.7,0-9.2,1-13.5,2.9
				c-8.2,3.6-14.5,10.2-17.8,18.6c-3.2,8.4-3,17.5,0.6,25.7c5.4,12.2,17.5,20.1,30.8,20.1c4.7,0,9.2-1,13.5-2.9
				c17-7.5,24.7-27.4,17.2-44.3C849.1,835.6,837,827.7,823.7,827.7z"/>
		</g>
		<g>
			<path fill="#FF998D" d="M832.9,857.3c2.2,5.1-0.1,11.1-5.2,13.3c-5.1,2.3-11.1-0.1-13.3-5.2c-2.2-5.1,0.1-11.1,5.2-13.3
				C824.7,849.8,830.7,852.1,832.9,857.3z"/>
			<path fill="#231F20" d="M823.7,873.6c-4.9,0-9.3-2.9-11.2-7.3c-1.3-3-1.4-6.3-0.2-9.4c1.2-3.1,3.5-5.5,6.5-6.8
				c1.6-0.7,3.2-1,4.9-1c4.9,0,9.3,2.9,11.2,7.3c1.3,3,1.4,6.3,0.2,9.4c-1.2,3.1-3.5,5.5-6.5,6.8
				C827.1,873.2,825.4,873.6,823.7,873.6z M823.7,853.4c-1.1,0-2.2,0.2-3.2,0.7c-1.9,0.9-3.4,2.4-4.2,4.4c-0.8,2-0.7,4.1,0.1,6.1
				c1.7,3.9,6.6,5.8,10.5,4.1c1.9-0.9,3.4-2.4,4.2-4.4c0.8-2,0.7-4.1-0.1-6.1C829.7,855.2,826.9,853.4,823.7,853.4z"/>
		</g>
		<g>
			<line fill="#FFFFFF" x1="819.6" y1="852.1" x2="809.3" y2="828.6"/>
			<path d="M819.6,854.2c-0.8,0-1.6-0.5-2-1.3l-10.4-23.5c-0.5-1.1,0-2.4,1.1-2.8c1.1-0.5,2.4,0,2.8,1.1l10.4,23.5
				c0.5,1.1,0,2.4-1.1,2.8C820.2,854.2,819.9,854.2,819.6,854.2z"/>
		</g>
		<g>
			<line fill="#FFFFFF" x1="817.7" y1="869.5" x2="802.6" y2="890.2"/>
			<path d="M802.6,892.3c-0.4,0-0.9-0.1-1.3-0.4c-1-0.7-1.2-2-0.5-3l15.2-20.7c0.7-1,2-1.2,3-0.5c1,0.7,1.2,2,0.5,3l-15.2,20.7
				C803.9,892,803.2,892.3,802.6,892.3z"/>
		</g>
		<g>
			<line fill="#FFFFFF" x1="833.8" y1="862.4" x2="859.3" y2="865.2"/>
			<path d="M859.3,867.3c-0.1,0-0.2,0-0.2,0l-25.5-2.8c-1.2-0.1-2-1.2-1.9-2.4c0.1-1.2,1.2-2,2.4-1.9l25.5,2.8
				c1.2,0.1,2,1.2,1.9,2.4C861.3,866.5,860.3,867.3,859.3,867.3z"/>
		</g>
	</g>
	<g>
		<g>
			<path fill="#FFFFFF" d="M991.1,834.7c14.7-13.2,37.3-11.9,50.5,2.8c13.2,14.7,11.9,37.3-2.8,50.5s-37.3,11.9-50.5-2.8
				C975.1,870.5,976.4,847.9,991.1,834.7z"/>
			<path d="M1014.9,899.3c-10.8,0-21.1-4.6-28.3-12.6c-6.8-7.5-10.2-17.3-9.6-27.4c0.6-10.1,5-19.4,12.6-26.2
				c7-6.2,15.9-9.7,25.3-9.7c10.8,0,21.1,4.6,28.3,12.6c13.9,15.6,12.6,39.6-3,53.5C1033.3,895.8,1024.3,899.3,1014.9,899.3z
				 M1014.9,827.7c-8.3,0-16.2,3-22.4,8.6c-6.7,6-10.7,14.2-11.2,23.2c-0.5,9,2.5,17.6,8.5,24.3c6.4,7.1,15.5,11.2,25.1,11.2
				c8.3,0,16.2-3,22.4-8.6c13.8-12.4,15-33.7,2.6-47.5C1033.6,831.8,1024.5,827.7,1014.9,827.7z"/>
		</g>
		<g>
			<path fill="#FF998D" d="M1008.2,853.8c4.2-3.7,10.5-3.4,14.3,0.8c3.7,4.2,3.4,10.5-0.8,14.3c-4.1,3.7-10.5,3.4-14.3-0.8
				C1003.7,863.9,1004,857.5,1008.2,853.8z"/>
			<path fill="#231F20" d="M1014.9,873.6c-3.5,0-6.8-1.5-9.1-4.1c-2.2-2.4-3.3-5.6-3.1-8.8c0.2-3.3,1.6-6.3,4.1-8.5
				c4.9-4.3,13-3.9,17.3,1c4.5,5,4.1,12.8-1,17.3C1020.8,872.5,1017.9,873.6,1014.9,873.6z M1014.9,853.4c-2,0-3.8,0.7-5.3,2
				c-1.6,1.4-2.5,3.4-2.6,5.5c-0.1,2.1,0.6,4.2,2,5.7c2.8,3.1,8.1,3.4,11.2,0.6c3.3-2.9,3.5-8,0.6-11.2
				C1019.4,854.3,1017.2,853.4,1014.9,853.4z"/>
		</g>
		<g>
			<line fill="#FFFFFF" x1="1007.4" y1="868.1" x2="988.3" y2="885.2"/>
			<path d="M988.3,887.3c-0.6,0-1.2-0.2-1.6-0.7c-0.8-0.9-0.7-2.2,0.2-3l19.1-17.1c0.9-0.8,2.2-0.7,3,0.2c0.8,0.9,0.7,2.2-0.2,3
				l-19.1,17.1C989.3,887.2,988.8,887.3,988.3,887.3z"/>
		</g>
		<g>
			<line fill="#FFFFFF" x1="1024.5" y1="864.5" x2="1048.9" y2="872.5"/>
			<path d="M1048.9,874.6c-0.2,0-0.5,0-0.7-0.1l-24.4-8c-1.1-0.4-1.7-1.6-1.4-2.7c0.4-1.1,1.6-1.8,2.7-1.4l24.4,8
				c1.1,0.4,1.7,1.6,1.4,2.7C1050.7,874.1,1049.8,874.6,1048.9,874.6z"/>
		</g>
		<g>
			<line fill="#FFFFFF" x1="1012.9" y1="851.4" x2="1007.6" y2="826.3"/>
			<path d="M1012.9,853.6c-1,0-1.9-0.7-2.1-1.7l-5.3-25.1c-0.2-1.2,0.5-2.3,1.7-2.5c1.2-0.3,2.3,0.5,2.5,1.7l5.3,25.1
				c0.2,1.2-0.5,2.3-1.7,2.5C1013.2,853.6,1013,853.6,1012.9,853.6z"/>
		</g>
	</g>
	<g>
		<g>
			<polygon fill="#CCED6B" points="243.9,884.5 2.1,884.5 2.1,854.4 213.8,854.4 213.8,794.2 243.9,794.2 			"/>
			<path d="M243.9,886.7H2.1c-1.2,0-2.1-1-2.1-2.1v-30.1c0-1.2,1-2.1,2.1-2.1h209.5v-58.1c0-1.2,1-2.1,2.1-2.1h30.1
				c1.2,0,2.1,1,2.1,2.1v90.3C246,885.7,245,886.7,243.9,886.7z M4.3,882.4h237.4v-86h-25.8v58.1c0,1.2-1,2.1-2.1,2.1H4.3V882.4z"/>
		</g>
	</g>
	<g>
		<polygon fill="#CCED6B" points="1187,683.9 1187,549.4 1156.9,549.4 1156.9,683.9 960.1,683.9 960.1,714 1171.9,714 1187,714 
			1222.9,714 1222.9,977.9 1253,977.9 1253,683.9 		"/>
		<path d="M1253,980h-30.1c-1.2,0-2.1-1-2.1-2.1V716.1H960.1c-1.2,0-2.1-1-2.1-2.1v-30.1c0-1.2,1-2.1,2.1-2.1h194.7V549.4
			c0-1.2,1-2.1,2.1-2.1h30.1c1.2,0,2.1,1,2.1,2.1v132.4h63.9c1.2,0,2.1,1,2.1,2.1v294C1255.1,979,1254.2,980,1253,980z
			 M1225.1,975.7h25.8V686H1187c-1.2,0-2.1-1-2.1-2.1V551.5h-25.8v132.4c0,1.2-1,2.1-2.1,2.1H962.2v25.8h260.7c1.2,0,2.1,1,2.1,2.1
			V975.7z"/>
	</g>
	<g>
		<path fill="#231F20" d="M327.6,324.9H130c-1.2,0-2.1-1-2.1-2.1c0-1.2,1-2.1,2.1-2.1h197.6c1.2,0,2.1,1,2.1,2.1
			C329.8,323.9,328.8,324.9,327.6,324.9z"/>
	</g>
	<g>
		<path fill="#231F20" d="M327.6,388H130c-1.2,0-2.1-1-2.1-2.1s1-2.1,2.1-2.1h197.6c1.2,0,2.1,1,2.1,2.1S328.8,388,327.6,388z"/>
	</g>
	<g>
		<path fill="#231F20" d="M327.6,451.1H130c-1.2,0-2.1-1-2.1-2.1s1-2.1,2.1-2.1h197.6c1.2,0,2.1,1,2.1,2.1S328.8,451.1,327.6,451.1z
			"/>
	</g>
	<g>
		<path fill="#231F20" d="M327.6,514.2H130c-1.2,0-2.1-1-2.1-2.1s1-2.1,2.1-2.1h197.6c1.2,0,2.1,1,2.1,2.1S328.8,514.2,327.6,514.2z
			"/>
	</g>
	<g>
		<path fill="#231F20" d="M327.6,577.3H130c-1.2,0-2.1-1-2.1-2.1c0-1.2,1-2.1,2.1-2.1h197.6c1.2,0,2.1,1,2.1,2.1
			C329.8,576.3,328.8,577.3,327.6,577.3z"/>
	</g>
	<g>
		<path fill="#231F20" d="M327.6,640.4H130c-1.2,0-2.1-1-2.1-2.1s1-2.1,2.1-2.1h197.6c1.2,0,2.1,1,2.1,2.1S328.8,640.4,327.6,640.4z
			"/>
	</g>
	<g>
		<path fill="#939598" d="M163.3,737.5c0,10.7-8.7,19.3-19.3,19.3l0,0c-10.7,0-19.3-8.7-19.3-19.3v-24.9c0-10.7,8.7-19.3,19.3-19.3
			l0,0c10.7,0,19.3,8.7,19.3,19.3V737.5z"/>
		<path fill="#231F20" d="M144,759c-11.8,0-21.5-9.6-21.5-21.5v-24.9c0-11.8,9.6-21.5,21.5-21.5c11.8,0,21.5,9.6,21.5,21.5v24.9
			C165.4,749.3,155.8,759,144,759z M144,695.4c-9.5,0-17.2,7.7-17.2,17.2v24.9c0,9.5,7.7,17.2,17.2,17.2c9.5,0,17.2-7.7,17.2-17.2
			v-24.9C161.1,703.1,153.4,695.4,144,695.4z"/>
	</g>
	<g>
		<path fill="#939598" d="M248.2,737.5c0,10.7-8.7,19.3-19.3,19.3l0,0c-10.7,0-19.3-8.7-19.3-19.3v-24.9c0-10.7,8.7-19.3,19.3-19.3
			l0,0c10.7,0,19.3,8.7,19.3,19.3V737.5z"/>
		<path fill="#231F20" d="M228.8,759c-11.8,0-21.5-9.6-21.5-21.5v-24.9c0-11.8,9.6-21.5,21.5-21.5s21.5,9.6,21.5,21.5v24.9
			C250.3,749.3,240.7,759,228.8,759z M228.8,695.4c-9.5,0-17.2,7.7-17.2,17.2v24.9c0,9.5,7.7,17.2,17.2,17.2
			c9.5,0,17.2-7.7,17.2-17.2v-24.9C246,703.1,238.3,695.4,228.8,695.4z"/>
	</g>
	<g>
		<path fill="#939598" d="M333,737.5c0,10.7-8.7,19.3-19.3,19.3l0,0c-10.7,0-19.3-8.7-19.3-19.3v-24.9c0-10.7,8.7-19.3,19.3-19.3
			l0,0c10.7,0,19.3,8.7,19.3,19.3V737.5z"/>
		<path fill="#231F20" d="M313.7,759c-11.8,0-21.5-9.6-21.5-21.5v-24.9c0-11.8,9.6-21.5,21.5-21.5s21.5,9.6,21.5,21.5v24.9
			C335.2,749.3,325.5,759,313.7,759z M313.7,695.4c-9.5,0-17.2,7.7-17.2,17.2v24.9c0,9.5,7.7,17.2,17.2,17.2
			c9.5,0,17.2-7.7,17.2-17.2v-24.9C330.9,703.1,323.2,695.4,313.7,695.4z"/>
	</g>
	<g>
		<path fill="#FFF29B" d="M180.5,257.9c0,9.5-7.7,17.2-17.2,17.2s-17.2-7.7-17.2-17.2c0-9.5,7.7-17.2,17.2-17.2
			S180.5,248.4,180.5,257.9z"/>
		<path fill="#231F20" d="M163.3,277.2c-10.7,0-19.3-8.7-19.3-19.3s8.7-19.3,19.3-19.3s19.3,8.7,19.3,19.3S174,277.2,163.3,277.2z
			 M163.3,242.9c-8.3,0-15,6.8-15,15c0,8.3,6.8,15,15,15c8.3,0,15-6.8,15-15C178.3,249.6,171.6,242.9,163.3,242.9z"/>
	</g>
	<g>
		<path fill="#FFF29B" d="M246,257.9c0,9.5-7.7,17.2-17.2,17.2c-9.5,0-17.2-7.7-17.2-17.2c0-9.5,7.7-17.2,17.2-17.2
			C238.3,240.7,246,248.4,246,257.9z"/>
		<path fill="#231F20" d="M228.8,277.2c-10.7,0-19.3-8.7-19.3-19.3s8.7-19.3,19.3-19.3c10.7,0,19.3,8.7,19.3,19.3
			S239.5,277.2,228.8,277.2z M228.8,242.9c-8.3,0-15,6.8-15,15c0,8.3,6.8,15,15,15c8.3,0,15-6.8,15-15
			C243.9,249.6,237.1,242.9,228.8,242.9z"/>
	</g>
	<g>
		<path fill="#FFF29B" d="M311.6,257.9c0,9.5-7.7,17.2-17.2,17.2c-9.5,0-17.2-7.7-17.2-17.2c0-9.5,7.7-17.2,17.2-17.2
			C303.9,240.7,311.6,248.4,311.6,257.9z"/>
		<path fill="#231F20" d="M294.4,277.2c-10.7,0-19.3-8.7-19.3-19.3s8.7-19.3,19.3-19.3c10.7,0,19.3,8.7,19.3,19.3
			S305,277.2,294.4,277.2z M294.4,242.9c-8.3,0-15,6.8-15,15c0,8.3,6.8,15,15,15s15-6.8,15-15C309.4,249.6,302.7,242.9,294.4,242.9z
			"/>
	</g>
</g>
</svg>
